<?xml version="1.0" encoding="UTF-8"?>
<svg width="24px" height="24px" viewBox="0 0 24 24" version="1.1" xmlns="http://www.w3.org/2000/svg" xmlns:xlink="http://www.w3.org/1999/xlink">
    <!-- Generator: Sketch 58 (84663) - https://sketch.com -->
    <title>ico_phone</title>
    <desc>Created with Sketch.</desc>
    <g id="Page-1" stroke="none" stroke-width="1" fill="none" fill-rule="evenodd">
        <g id="ico_phone" fill-rule="nonzero">
            <rect id="Rectangle" fill-opacity="0" fill="#FFFFFF" x="0" y="0" width="24" height="24"></rect>
            <g id="Group" transform="translate(2.000000, 2.000000)" fill="#606060">
                <path d="M5.50450973,0.697980331 C4.55518523,-0.25331704 3.00366608,-0.224311381 2.04508266,0.736703755 L1.26226826,1.56919803 C0.879600781,2.05191902 0.612177926,2.5244982 0.414109429,3.0311289 C0.231265617,3.51390605 0.117107827,3.97452274 0.064543531,4.4408566 C-0.345243493,7.84554247 1.17838699,10.900512 5.1476284,14.8788016 C7.54860309,17.2850495 9.9473264,18.7657593 12.2397442,19.4995052 C13.6911363,19.9640597 14.8256942,20.0590358 15.5629723,19.9806529 C16.0571222,19.9215408 16.5174417,19.8058469 16.9781941,19.6265043 C17.4825923,19.4290215 17.9542477,19.1611092 18.3672118,18.8372348 L17.1329769,17.2634927 C16.8747822,17.4659864 16.5734825,17.6371324 16.2508866,17.763437 C15.9480908,17.8812947 15.6515288,17.9558308 15.3383,17.993357 C15.2370385,18.0040333 15.0182996,18.0077691 14.6974704,17.9809118 C14.1553495,17.9355298 13.5359122,17.8144258 12.8494255,17.5946984 C10.864404,16.9593424 8.74114114,15.6486719 6.56342176,13.4661696 C2.98432881,9.87891786 1.72770685,7.35931624 2.05108626,4.67235452 C2.08539317,4.36824755 2.15938762,4.06968643 2.2806794,3.74932169 C2.40490379,3.43173241 2.57617154,3.12907476 2.7788072,2.869929 L3.48186182,2.12766513 C3.64985361,1.9598788 3.93301276,1.95458514 4.08882897,2.11072517 L5.50450973,0.697980331 Z" id="Path"></path>
                <path d="M9.43727868,10.5906692 C8.56523842,9.71675902 8.05415362,9.00110881 7.37910407,7.81570841 L7.78447983,7.41001768 L8.24754453,6.94533375 C9.20447909,5.9859718 9.23222388,4.43591866 8.2848245,3.48521703 L5.50465469,0.698125615 C5.11461621,0.307116111 4.48145172,0.306328936 4.09044222,0.696367412 C3.69943271,1.08640589 3.69864554,1.71957038 4.08868401,2.11057988 L6.86850325,4.89731968 C7.02615429,5.0555204 7.02100927,5.34296367 6.83120173,5.53325272 L6.36875766,5.99731498 L5.4297861,6.93701481 C5.11134614,7.25570219 5.04532366,7.74797588 5.26853756,8.13930849 C5.30412909,8.20170659 5.33577745,8.25876833 5.41232229,8.39769738 C6.28516176,9.97273936 6.89755201,10.8769579 8.0212506,12.0030658 C9.14269742,13.1278752 10.0513641,13.7460273 11.6121825,14.6128164 C11.7049394,14.6650089 11.7988078,14.7173452 11.8905131,14.7680021 C12.2808764,14.9836343 12.7668448,14.9147185 13.0818644,14.5990551 L14.4823493,13.1957079 C14.6706787,13.0068837 14.9544325,13.0015782 15.1116218,13.158491 L17.8899791,15.9434573 C18.2800394,16.3344451 18.9132039,16.3351969 19.3041916,15.9451366 C19.6951794,15.5550763 19.6959312,14.9219118 19.3058709,14.5309241 L16.5260517,11.7444952 C15.5740566,10.794172 14.023961,10.8231551 13.0664871,11.783145 L12.2017084,12.6496911 C11.0237294,11.9769435 10.3062676,11.4622636 9.43727868,10.5906692 Z" id="Path"></path>
            </g>
        </g>
    </g>
</svg>