<?xml version="1.0" encoding="UTF-8"?>
<svg width="24px" height="24px" viewBox="0 0 24 24" version="1.1" xmlns="http://www.w3.org/2000/svg" xmlns:xlink="http://www.w3.org/1999/xlink">
    <!-- Generator: Sketch 57 (83077) - https://sketch.com -->
    <title>ico_mail</title>
    <desc>Created with Sketch.</desc>
    <g id="Page-1" stroke="none" stroke-width="1" fill="none" fill-rule="evenodd">
        <rect id="Rectangle" fill-opacity="0" fill="#FFFFFF" x="0" y="0" width="24" height="24"></rect>
        <g id="ICN/S/Mail">
            <path d="M2,19 L22,19 L22,5 L2,5 L2,19 Z M22,3 L2,3 C0.895,3 0,3.896 0,5 L0,19 C0,20.104 0.895,21 2,21 L22,21 C23.104,21 24,20.104 24,19 L24,5 C24,3.896 23.104,3 22,3 L22,3 Z" id="Fill-1" fill="#606060" fill-rule="evenodd"></path>
            <path d="M3.99990536,17.6999467 C4.24990536,17.6999467 4.50090536,17.6069467 4.69490536,17.4189467 L9.43190536,12.8449467 C9.47690536,12.8019467 9.49890536,12.7469467 9.53390536,12.6979467 L11.3489054,14.1469467 C11.5319054,14.2919467 11.7529054,14.3649467 11.9729054,14.3649467 C12.1939054,14.3649467 12.4149054,14.2919467 12.5969054,14.1469467 L14.3609054,12.7389467 C14.3899054,12.7749467 14.4059054,12.8189467 14.4409054,12.8519467 L19.1919054,17.3529467 C19.3859054,17.5369467 19.6329054,17.6269467 19.8799054,17.6269467 C20.1449054,17.6269467 20.4089054,17.5229467 20.6059054,17.3149467 C20.9859054,16.9139467 20.9689054,16.2809467 20.5679054,15.9009467 L15.9179054,11.4959467 L20.5039054,7.83494667 C20.9359054,7.49094667 21.0059054,6.86094667 20.6619054,6.42994667 C20.3169054,5.99894667 19.6889054,5.92794667 19.2559054,6.27194667 L11.9729054,12.0849467 L4.62390536,6.21794667 C4.19190536,5.87394667 3.56390536,5.94494667 3.21890536,6.37594667 C2.87390536,6.80794667 2.94490536,7.43694667 3.37590536,7.78194667 L7.98590536,11.4619467 L3.30590536,15.9809467 C2.90790536,16.3639467 2.89690536,16.9979467 3.28090536,17.3949467 C3.47690536,17.5979467 3.73890536,17.6999467 3.99990536,17.6999467 Z" id="Fill-3" fill="#606060" fill-rule="evenodd"></path>
            <path d="" id="Path-2" stroke="#979797" stroke-width="1"></path>
        </g>
    </g>
</svg>