<?xml version="1.0" encoding="UTF-8"?>
<svg width="108px" height="24px" viewBox="0 0 108 24" version="1.1" xmlns="http://www.w3.org/2000/svg" xmlns:xlink="http://www.w3.org/1999/xlink">
    <!-- Generator: Sketch 55.2 (78181) - https://sketchapp.com -->
    <title>Mask</title>
    <desc>Created with Sketch.</desc>
    <defs>
        <linearGradient x1="0%" y1="50%" x2="100%" y2="50%" id="linearGradient-1">
            <stop stop-color="#C04CD1" offset="0%"></stop>
            <stop stop-color="#FF0A40" offset="50.1783779%"></stop>
            <stop stop-color="#EF5E01" offset="100%"></stop>
        </linearGradient>
        <path d="M83.9372166,11.9998727 C83.9372166,18.616751 89.3341781,24 95.969502,24 L95.969502,24 C102.603549,24 108,18.616751 108,11.9998727 L108,11.9998727 C108,5.38324897 102.603549,0 95.969502,0 L95.969502,0 C89.3341781,0 83.9372166,5.38324897 83.9372166,11.9998727 M86.3406607,11.9998727 C86.3406607,6.70474008 90.6601194,2.39747875 95.969502,2.39747875 L95.969502,2.39747875 C101.278118,2.39747875 105.596811,6.70474008 105.596811,11.9998727 L105.596811,11.9998727 C105.596811,17.2955146 101.278118,21.6027759 95.969502,21.6027759 L95.969502,21.6027759 C90.6601194,21.6027759 86.3406607,17.2955146 86.3406607,11.9998727 M56.732823,11.9998727 C56.732823,18.616751 62.1300399,24 68.764087,24 L68.764087,24 C73.1072916,24 76.9084255,21.6847802 79.0238547,18.2344889 L79.0238547,18.2344889 L76.9714926,16.9942381 C75.2781279,19.7518225 72.2378847,21.6027759 68.764087,21.6027759 L68.764087,21.6027759 C63.4552152,21.6027759 59.1362671,17.2955146 59.1362671,11.9998727 L59.1362671,11.9998727 C59.1362671,6.70474008 63.4552152,2.39747875 68.764087,2.39747875 L68.764087,2.39747875 C72.2322674,2.39747875 75.268936,4.24206539 76.964088,6.99328304 L76.964088,6.99328304 L79.01645,5.75252284 C76.8987229,2.30961704 73.102185,0 68.764087,0 L68.764087,0 C62.1300399,0 56.732823,5.38324897 56.732823,11.9998727 M29.2296904,11.9998727 C29.2296904,18.616751 34.626652,24 41.2606991,24 L41.2606991,24 C45.6159044,24 49.4264855,21.6717919 51.5385954,18.2054563 L51.5385954,18.2054563 L49.4862333,16.9644415 C47.796188,19.7393436 44.7464975,21.6027759 41.2606991,21.6027759 L41.2606991,21.6027759 C35.9513166,21.6027759 31.6331346,17.2955146 31.6331346,11.9998727 L31.6331346,11.9998727 C31.6331346,6.70474008 35.9513166,2.39747875 41.2606991,2.39747875 L41.2606991,2.39747875 C44.7413908,2.39747875 47.7867407,4.25505364 49.4780627,7.02257027 L49.4780627,7.02257027 L51.5304248,5.78181008 C49.4170382,2.32260529 45.6105424,0 41.2606991,0 L41.2606991,0 C34.626652,0 29.2296904,5.38324897 29.2296904,11.9998727 M0,11.9998727 C0,18.616751 5.39721688,24 12.031264,24 L12.031264,24 C18.6650559,24 24.0620174,18.616751 24.0620174,11.9998727 L24.0620174,11.9998727 C24.0620174,5.38324897 18.6650559,0 12.031264,0 L12.031264,0 C5.39721688,0 0,5.38324897 0,11.9998727 M2.40344415,11.9998727 C2.40344415,6.70474008 6.72188152,2.39747875 12.031264,2.39747875 L12.031264,2.39747875 C17.3398806,2.39747875 21.6585733,6.70474008 21.6585733,11.9998727 L21.6585733,11.9998727 C21.6585733,17.2955146 17.3398806,21.6027759 12.031264,21.6027759 L12.031264,21.6027759 C6.72188152,21.6027759 2.40344415,17.2955146 2.40344415,11.9998727" id="path-2"></path>
    </defs>
    <g id="Symbols" stroke="none" stroke-width="1" fill="none" fill-rule="evenodd">
        <g id="BLCK/HEADER-no-background" transform="translate(-594.000000, 0.000000)">
            <g transform="translate(594.000000, 0.000000)">
                <mask id="mask-3" fill="white">
                    <use xlink:href="#path-2"></use>
                </mask>
                <use id="Mask" fill="url(#linearGradient-1)" xlink:href="#path-2"></use>
            </g>
        </g>
    </g>
</svg>